<?xml version="1.0" standalone="no"?>
<!DOCTYPE svg PUBLIC "-//W3C//DTD SVG 20010904//EN"
 "http://www.w3.org/TR/2001/REC-SVG-20010904/DTD/svg10.dtd">
<svg version="1.0" xmlns="http://www.w3.org/2000/svg"
 width="240.000000pt" height="240.000000pt" viewBox="0 0 240.000000 240.000000"
 preserveAspectRatio="xMidYMid meet">
<metadata>
Created by potrace 1.11, written by Peter Selinger 2001-2013
</metadata>
<g transform="translate(0.000000,240.000000) scale(0.100000,-0.100000)"
fill="#000000" stroke="none">
<path d="M817 2356 c-38 -14 -64 -32 -102 -72 -14 -15 -33 -22 -65 -23 -60 -2
-143 -43 -182 -92 -23 -28 -37 -38 -50 -33 -10 3 -43 -2 -74 -11 -170 -49
-219 -258 -88 -374 60 -52 129 -68 215 -48 6 1 30 -26 55 -59 l44 -62 -32 2
c-51 3 -153 -21 -209 -49 -28 -15 -77 -52 -109 -83 -115 -112 -150 -239 -126
-447 33 -289 187 -563 418 -748 120 -96 310 -185 453 -213 22 -4 45 -8 50 -9
68 -15 245 -20 310 -10 274 42 481 142 654 315 80 80 99 101 128 147 9 15 20
30 24 33 24 20 149 290 133 290 -2 0 2 14 11 30 9 17 13 30 11 30 -3 0 0 15 5
33 24 84 30 259 12 348 -7 35 -25 88 -40 118 -27 51 -135 171 -155 171 -6 0
-24 10 -41 22 -18 13 -32 22 -32 20 0 -2 -7 -1 -15 1 -67 20 -104 27 -149 27
l-52 0 46 60 c25 33 71 80 101 105 44 36 61 44 86 41 43 -5 111 26 136 62 20
28 44 106 36 115 -3 2 -6 14 -9 26 -12 64 -98 124 -164 116 -27 -4 -41 2 -68
25 -41 37 -87 57 -132 58 -19 0 -46 10 -60 22 -76 62 -169 82 -255 55 -54 -17
-128 -73 -138 -105 -4 -11 -12 -7 -35 17 -57 60 -130 71 -194 28 l-36 -24 -14
27 c-56 107 -187 159 -302 118z"/>
</g>
</svg>
